<svg width="22" height="20" viewBox="0 0 22 20" fill="none" xmlns="http://www.w3.org/2000/svg">
<path d="M10.7772 19H2.31823C3.30234 17.7508 3.83533 16.2056 3.83068 14.6154V1H16.8804V8.17993C16.8804 8.27939 16.9199 8.37477 16.9903 8.4451C17.0606 8.51542 17.156 8.55493 17.2554 8.55493C17.3549 8.55493 17.4503 8.51542 17.5206 8.4451C17.5909 8.37477 17.6304 8.27939 17.6304 8.17993V0.625C17.6304 0.575751 17.6207 0.526981 17.6019 0.481478C17.5831 0.435975 17.5554 0.394631 17.5206 0.359806C17.4858 0.324982 17.4444 0.29736 17.3989 0.278519C17.3534 0.259678 17.3047 0.249987 17.2554 0.25H3.45568C3.40643 0.249987 3.35766 0.259678 3.31216 0.278519C3.26665 0.29736 3.22531 0.324982 3.19049 0.359806C3.15566 0.394631 3.12804 0.435975 3.1092 0.481478C3.09036 0.526981 3.08067 0.575751 3.08068 0.625V14.6154C3.08299 15.4504 2.91965 16.2776 2.60014 17.0491C2.28062 17.8205 1.81126 18.521 1.21923 19.1099C1.16678 19.1623 1.13106 19.2291 1.11658 19.3019C1.10211 19.3746 1.10953 19.45 1.13792 19.5185C1.1663 19.587 1.21436 19.6456 1.27603 19.6868C1.3377 19.728 1.4102 19.75 1.48436 19.75H10.7772C10.8766 19.75 10.972 19.7105 11.0423 19.6402C11.1126 19.5698 11.1522 19.4745 11.1522 19.375C11.1522 19.2755 11.1126 19.1802 11.0423 19.1098C10.972 19.0395 10.8766 19 10.7772 19Z" fill="#1C796F" stroke="#1C796F" stroke-width="0.5"/>
<path d="M14.6572 4.97363H6.05469C5.95523 4.97363 5.85985 5.01314 5.78952 5.08347C5.7192 5.15379 5.67969 5.24918 5.67969 5.34863C5.67969 5.44809 5.7192 5.54347 5.78952 5.6138C5.85985 5.68412 5.95523 5.72363 6.05469 5.72363H14.6572C14.7566 5.72363 14.852 5.68412 14.9224 5.6138C14.9927 5.54347 15.0322 5.44809 15.0322 5.34863C15.0322 5.24918 14.9927 5.15379 14.9224 5.08347C14.852 5.01314 14.7566 4.97363 14.6572 4.97363Z" fill="#1C796F" stroke="#1C796F" stroke-width="0.5"/>
<path d="M15.0322 7.88867C15.0322 7.83942 15.0225 7.79065 15.0037 7.74515C14.9848 7.69965 14.9572 7.6583 14.9224 7.62348C14.8876 7.58865 14.8462 7.56103 14.8007 7.54219C14.7552 7.52335 14.7064 7.51366 14.6572 7.51367H6.05469C5.95523 7.51367 5.85985 7.55318 5.78952 7.62351C5.7192 7.69383 5.67969 7.78922 5.67969 7.88867C5.67969 7.98813 5.7192 8.08351 5.78952 8.15384C5.85985 8.22416 5.95523 8.26367 6.05469 8.26367H14.6572C14.7064 8.26368 14.7552 8.25399 14.8007 8.23515C14.8462 8.21631 14.8876 8.18869 14.9224 8.15387C14.9572 8.11904 14.9848 8.0777 15.0037 8.03219C15.0225 7.98669 15.0322 7.93792 15.0322 7.88867Z" fill="#1C796F" stroke="#1C796F" stroke-width="0.5"/>
<path d="M11.2932 10.4297C11.2932 10.3804 11.2835 10.3317 11.2646 10.2862C11.2458 10.2407 11.2182 10.1993 11.1833 10.1645C11.1485 10.1297 11.1072 10.102 11.0617 10.0832C11.0162 10.0644 10.9674 10.0547 10.9182 10.0547H6.05469C5.95523 10.0547 5.85985 10.0942 5.78952 10.1645C5.7192 10.2348 5.67969 10.3302 5.67969 10.4297C5.67969 10.5291 5.7192 10.6245 5.78952 10.6949C5.85985 10.7652 5.95523 10.8047 6.05469 10.8047H10.9182C10.9674 10.8047 11.0162 10.795 11.0617 10.7762C11.1072 10.7573 11.1485 10.7297 11.1833 10.6949C11.2182 10.6601 11.2458 10.6187 11.2646 10.5732C11.2835 10.5277 11.2932 10.4789 11.2932 10.4297Z" fill="#1C796F" stroke="#1C796F" stroke-width="0.5"/>
<path d="M6.05469 12.5957C5.95523 12.5957 5.85985 12.6352 5.78952 12.7055C5.7192 12.7759 5.67969 12.8712 5.67969 12.9707C5.67969 13.0702 5.7192 13.1655 5.78952 13.2359C5.85985 13.3062 5.95523 13.3457 6.05469 13.3457H9.11346C9.21292 13.3457 9.3083 13.3062 9.37863 13.2359C9.44896 13.1655 9.48846 13.0702 9.48846 12.9707C9.48846 12.8712 9.44896 12.7759 9.37863 12.7055C9.3083 12.6352 9.21292 12.5957 9.11346 12.5957H6.05469Z" fill="#1C796F" stroke="#1C796F" stroke-width="0.5"/>
<path d="M19.4722 11.4743C18.845 10.8459 18.0571 10.4021 17.1947 10.1913C16.3322 9.98044 15.4285 10.0107 14.5821 10.2788C13.7357 10.5469 12.9793 11.0425 12.3955 11.7114C11.8118 12.3803 11.4231 13.1969 11.2721 14.0717L10.9741 13.7737C10.9038 13.7034 10.8084 13.6639 10.7089 13.6639C10.6095 13.6639 10.5141 13.7034 10.4438 13.7737C10.3735 13.844 10.334 13.9394 10.334 14.0389C10.334 14.1383 10.3735 14.2337 10.4438 14.304L11.3067 15.1669C11.3772 15.237 11.4726 15.2764 11.5721 15.2764C11.6716 15.2764 11.767 15.237 11.8375 15.1669L12.7006 14.304C12.7709 14.2337 12.8104 14.1383 12.8104 14.0389C12.8104 13.9394 12.7709 13.844 12.7006 13.7737C12.6303 13.7034 12.5349 13.6639 12.4355 13.6639C12.336 13.6639 12.2406 13.7034 12.1703 13.7737L12.0852 13.8589C12.3157 12.987 12.8278 12.2157 13.5417 11.6646C14.2556 11.1136 15.1316 10.8138 16.0334 10.8117C16.9352 10.8095 17.8126 11.1053 18.5291 11.6529C19.2456 12.2005 19.7613 12.9695 19.9959 13.8402C20.2306 14.711 20.1712 15.6349 19.8269 16.4685C19.4827 17.302 18.8728 17.9986 18.092 18.4499C17.3112 18.9013 16.4033 19.0822 15.5091 18.9646C14.615 18.847 13.7847 18.4374 13.1472 17.7995C13.0769 17.7292 12.9815 17.6897 12.8821 17.6897C12.7826 17.6897 12.6872 17.7292 12.6169 17.7995C12.5466 17.8698 12.5071 17.9652 12.5071 18.0646C12.5071 18.1641 12.5466 18.2594 12.6169 18.3298C13.5262 19.2381 14.7589 19.7482 16.0441 19.7478C17.3294 19.7475 18.5619 19.2368 19.4706 18.328C20.3794 17.4192 20.8901 16.1867 20.8904 14.9015C20.8907 13.6162 20.3806 12.3835 19.4722 11.4743Z" fill="#1C796F" stroke="#1C796F" stroke-width="0.5"/>
<path d="M16.0449 11.6553C15.9957 11.6553 15.9469 11.665 15.9014 11.6838C15.8559 11.7026 15.8146 11.7303 15.7797 11.7651C15.7449 11.7999 15.7173 11.8412 15.6984 11.8868C15.6796 11.9323 15.6699 11.981 15.6699 12.0303V14.9021C15.6705 15.0016 15.7101 15.0969 15.7801 15.1676L17.1392 16.5266C17.2096 16.5962 17.3048 16.6351 17.4038 16.6347C17.5028 16.6344 17.5977 16.5949 17.6677 16.5249C17.7377 16.4549 17.7772 16.36 17.7775 16.261C17.7779 16.162 17.739 16.0668 17.6694 15.9964L16.4199 14.7469V12.0303C16.4199 11.981 16.4102 11.9323 16.3914 11.8868C16.3726 11.8412 16.3449 11.7999 16.3101 11.7651C16.2753 11.7303 16.2339 11.7026 16.1884 11.6838C16.1429 11.665 16.0942 11.6553 16.0449 11.6553Z" fill="#1C796F" stroke="#1C796F" stroke-width="0.5"/>
</svg>
